#!OML:ASF F:\VICON\USERDATA\INSTALL\rory3\rory3.ASF
:FULLY-SPECIFIED
:DEGREES
1386
root -3.1869 22.2572 0.545371 351.885 19.6567 6.43066
lowerback 8.6563 -1.84846 -1.38296
upperback 3.07938 -2.5635 -0.377761
thorax -1.61736 -1.27587 0.63841
lowerneck -1.56366 -0.273663 -7.27336
upperneck 24.8353 -0.817869 5.68465
head 7.93684 -0.489249 3.09678
rclavicle -4.78823e-014 9.54166e-015
rhumerus -37.4896 -12.3538 -61.5083
rradius 27.743
rwrist 7.10278
rhand -24.111 -0.130303
rfingers 7.12502
rthumb 2.3702 -30.0969
lclavicle -4.78823e-014 9.54166e-015
lhumerus -32.3243 11.6878 76.0673
lradius 27.4599
lwrist -0.336755
lhand -28.6503 27.0356
lfingers 7.12502
lthumb -2.014 57.0058
rfemur -6.09095 29.9264 21.1794
rtibia 41.2663
rfoot 2.87389 25.1134
rtoes 19.3225
lfemur -33.6678 7.69865 -15.8149
ltibia 98.0112
lfoot -12.3079 -7.73684
ltoes -0.765918
1387
root -3.21407 22.2496 0.562235 351.938 19.3845 6.6322
lowerback 8.75535 -1.80867 -1.488
upperback 3.10961 -2.52098 -0.397506
thorax -1.63783 -1.2548 0.675654
lowerneck -1.28342 -0.238544 -7.25131
upperneck 24.5381 -0.799549 5.74796
head 7.78417 -0.475125 3.10822
rclavicle 3.91357e-015 2.38542e-015
rhumerus -37.3939 -12.4751 -61.405
rradius 27.6967
rwrist 7.71234
rhand -23.9667 -0.863314
rfingers 7.12502
rthumb 2.50955 -30.8283
lclavicle 3.91357e-015 2.38542e-015
lhumerus -32.3723 11.3756 76.1719
lradius 28.0728
lwrist -0.139089
lhand -28.6502 28.0003
lfingers 7.12502
lthumb -2.01388 57.9706
rfemur -6.22734 29.984 21.053
rtibia 41.4641
rfoot 2.87721 25.4623
rtoes 19.2807
lfemur -33.9422 7.90496 -16.1786
ltibia 97.242
lfoot -12.6741 -7.34808
ltoes -1.45003
1388
root -3.24121 22.2404 0.576278 352.057 19.1445 6.8002
lowerback 8.77924 -1.81514 -1.53576
upperback 3.10222 -2.53511 -0.433793
thorax -1.65787 -1.26172 0.667433
lowerneck -0.810229 -0.217516 -7.08558
upperneck 24.0429 -0.775385 5.59266
head 7.53209 -0.4659 3.0173
rclavicle 3.8117e-014 -3.97569e-015
rhumerus -37.2476 -12.411 -61.5229
rradius 27.5109
rwrist 7.21429
rhand -25.0784 0.286483
rfingers 7.12502
rthumb 1.43581 -29.6884
lclavicle 3.8117e-014 -3.97569e-015
lhumerus -32.4637 11.2543 76.0995
lradius 28.597
lwrist -0.0846096
lhand -28.8517 27.7495
lfingers 7.12502
lthumb -2.20853 57.7178
rfemur -6.42978 30.0612 20.9252
rtibia 41.6229
rfoot 2.80944 25.6461
rtoes 19.5258
lfemur -34.2811 8.09006 -16.542
ltibia 96.3656
lfoot -13.1162 -7.24454
ltoes -2.37253
1389
root -3.2689 22.2334 0.593267 352.15 18.9137 6.9411
lowerback 8.85489 -1.82948 -1.58398
upperback 3.15849 -2.5587 -0.43894
thorax -1.63894 -1.27394 0.692911
lowerneck -0.77663 -0.23714 -6.74779
upperneck 23.7268 -0.722917 5.08263
head 7.41878 -0.453814 2.78625
rclavicle -4.5472e-015 7.95139e-016
rhumerus -36.7721 -12.5755 -61.617
rradius 27.2748
rwrist 7.33823
rhand -25.3701 0.202709
rfingers 7.12502
rthumb 1.15409 -29.7739
lclavicle -4.5472e-015 7.95139e-016
lhumerus -32.1144 11.3399 76.0371
lradius 28.4937
lwrist -0.138064
lhand -28.8427 26.9902
lfingers 7.12502
lthumb -2.19975 56.9586
rfemur -6.59487 30.0844 20.8263
rtibia 41.7459
rfoot 2.7075 25.9093
rtoes 19.7292
lfemur -34.5497 8.28639 -16.9024
ltibia 95.3585
lfoot -13.7008 -7.13769
ltoes -5.21543
1390
root -3.29474 22.2292 0.612298 352.217 18.6751 7.00151
lowerback 8.97974 -1.83333 -1.53872
upperback 3.17561 -2.56143 -0.41856
thorax -1.69103 -1.27472 0.693068
lowerneck -1.04597 -0.256304 -6.82234
upperneck 23.9083 -0.749259 5.16645
head 7.52857 -0.464828 2.82915
rclavicle 1.34428e-014 -2.38542e-014
rhumerus -36.2536 -12.8502 -61.6154
rradius 26.9466
rwrist 7.65582
rhand -25.3045 1.32911
rfingers 7.12502
rthumb 1.2175 -28.6472
lclavicle 1.34428e-014 -2.38542e-014
lhumerus -31.4771 11.3903 75.9877
lradius 27.6707
lwrist -0.213765
lhand -28.7667 26.1666
lfingers 7.12502
lthumb -2.12643 56.1357
rfemur -6.71223 30.149 20.8234
rtibia 41.839
rfoot 2.66497 26.2124
rtoes 20.2449
lfemur -34.7475 8.40619 -17.2248
ltibia 94.2439
lfoot -13.9066 -6.81676
ltoes -7.66131
1391
root -3.32075 22.2227 0.631006 352.344 18.4128 6.94801
lowerback 8.9253 -1.81243 -1.34246
upperback 3.17777 -2.51561 -0.396776
thorax -1.66751 -1.25158 0.599107
lowerneck -1.3672 -0.26143 -7.18557
upperneck 24.3575 -0.84901 5.80129
head 7.74099 -0.489435 3.1075
rclavicle -1.04362e-015 -1.74931e-014
rhumerus -35.9332 -13.1786 -61.5533
rradius 26.9712
rwrist 8.68219
rhand -24.1598 0.483294
rfingers 7.12502
rthumb 2.32302 -29.4838
lclavicle -1.04362e-015 -1.74931e-014
lhumerus -30.9923 11.1468 76.0464
lradius 27.1813
lwrist -0.191747
lhand -28.9429 25.9187
lfingers 7.12502
lthumb -2.29655 55.8861
rfemur -6.92419 30.3423 20.9472
rtibia 41.9278
rfoot 2.716 26.2714
rtoes 20.937
lfemur -35.0328 8.54957 -17.4239
ltibia 93.0706
lfoot -13.6082 -6.47516
ltoes -8.43486
1392
root -3.35 22.2111 0.649076 352.465 18.1768 6.67192
lowerback 8.73261 -1.84019 -0.998725
upperback 3.19145 -2.5192 -0.312653
thorax -1.55848 -1.25346 0.486481
lowerneck -1.5007 -0.22006 -7.42221
upperneck 24.5081 -0.85758 6.22443
head 7.81461 -0.477731 3.29409
rclavicle 6.9351e-014 -2.3059e-014
rhumerus -35.6891 -12.9132 -61.8527
rradius 26.8383
rwrist 7.63702
rhand -24.7175 1.14631
rfingers 7.12502
rthumb 1.78439 -28.826
lclavicle 6.9351e-014 -2.3059e-014
lhumerus -30.7178 10.9949 76.0461
lradius 27.0747
lwrist -0.240309
lhand -29.1028 26.1513
lfingers 7.12502
lthumb -2.451 56.1169
rfemur -7.19797 30.5897 21.3232
rtibia 42.0152
rfoot 2.60877 26.0481
rtoes 20.7433
lfemur -35.4351 8.71106 -17.3649
ltibia 91.8586
lfoot -13.067 -6.31396
ltoes -8.91502
1393
root -3.37622 22.2041 0.669777 352.656 18.0101 6.66081
lowerback 8.53626 -1.89636 -0.8999
upperback 3.18951 -2.58398 -0.310359
thorax -1.45567 -1.28625 0.432622
lowerneck -1.54052 -0.199773 -7.40266
upperneck 24.5377 -0.816921 6.15771
head 7.82899 -0.462946 3.27165
rclavicle -3.40916e-014 2.8625e-014
rhumerus -35.4907 -12.6491 -62.1449
rradius 27.0101
rwrist 7.34167
rhand -24.1432 0.172203
rfingers 7.12502
rthumb 2.33906 -29.7947
lclavicle -3.40916e-014 2.8625e-014
lhumerus -30.4767 11.0172 75.9025
lradius 26.815
lwrist -0.418096
lhand -29.0798 26.0104
lfingers 7.12502
lthumb -2.42881 55.9764
rfemur -7.41024 30.7133 21.4252
rtibia 42.0944
rfoot 2.20031 25.9385
rtoes 19.7997
lfemur -35.7219 8.76402 -17.6536
ltibia 90.4922
lfoot -12.3343 -6.07048
ltoes -9.51688
1394
root -3.40269 22.2025 0.693028 352.803 17.9175 6.80111
lowerback 8.50364 -1.9622 -0.932682
upperback 3.14931 -2.6755 -0.356824
thorax -1.47872 -1.33178 0.411542
lowerneck -1.54787 -0.197038 -7.38659
upperneck 24.6233 -0.794319 6.0483
head 7.85819 -0.461428 3.23531
rclavicle -1.3741e-014 8.74653e-015
rhumerus -35.4251 -12.452 -62.32
rradius 27.2033
rwrist 7.35916
rhand -23.7717 0.856334
rfingers 7.12502
rthumb 2.69788 -29.1063
lclavicle -1.3741e-014 8.74653e-015
lhumerus -30.3197 11.0099 75.7108
lradius 26.4859
lwrist -0.535375
lhand -29.0596 25.6347
lfingers 7.12502
lthumb -2.4093 55.6009
rfemur -7.45989 30.7207 21.4322
rtibia 42.1708
rfoot 1.7045 25.849
rtoes 19.1804
lfemur -35.7902 8.72659 -18.1082
ltibia 88.998
lfoot -11.4798 -5.78282
ltoes -10.52
1395
root -3.42961 22.1995 0.717942 352.843 17.8314 6.75916
lowerback 8.4802 -2.02312 -0.804534
upperback 3.15704 -2.74589 -0.356343
thorax -1.46297 -1.3665 0.345977
lowerneck -1.66326 -0.209396 -7.33017
upperneck 24.7913 -0.792027 5.94503
head 7.93594 -0.464462 3.19492
rclavicle -5.06404e-014 2.38542e-015
rhumerus -35.3292 -12.2279 -62.5145
rradius 27.4465
rwrist 7.33516
rhand -23.8806 1.44238
rfingers 7.12502
rthumb 2.59265 -28.5216
lclavicle -5.06404e-014 2.38542e-015
lhumerus -30.0908 10.7493 75.6518
lradius 26.2094
lwrist -0.461822
lhand -28.9561 25.6895
lfingers 7.12502
lthumb -2.30928 55.6567
rfemur -7.42005 30.7602 21.6856
rtibia 42.2385
rfoot 1.28088 25.7153
rtoes 19.3102
lfemur -35.7863 8.68882 -18.3466
ltibia 87.4314
lfoot -10.3616 -5.5742
ltoes -11.4449
1396
root -3.45754 22.1907 0.743858 352.929 17.6896 6.73686
lowerback 8.35114 -2.07775 -0.775551
upperback 3.15248 -2.81461 -0.319132
thorax -1.39531 -1.40139 0.369403
lowerneck -1.74032 -0.185723 -7.32779
upperneck 24.982 -0.737503 5.84354
head 8.01116 -0.448137 3.16843
rclavicle -1.60767e-014 0
rhumerus -35.284 -11.76 -62.7613
rradius 27.9065
rwrist 7.0245
rhand -23.8233 1.52279
rfingers 7.12502
rthumb 2.64804 -28.4405
lclavicle -1.60767e-014 0
lhumerus -29.9262 10.7221 75.5715
lradius 25.8807
lwrist -0.560647
lhand -28.8495 25.8358
lfingers 7.12502
lthumb -2.20636 55.8041
rfemur -7.43685 30.905 21.9131
rtibia 42.2996
rfoot 1.00627 25.487
rtoes 19.9324
lfemur -35.8047 8.75039 -18.5891
ltibia 85.8116
lfoot -8.97101 -5.38264
ltoes -12.332
1397
root -3.48744 22.1812 0.76993 353.104 17.6017 6.87873
lowerback 8.19284 -2.13696 -0.946821
upperback 3.10159 -2.90624 -0.323034
thorax -1.3511 -1.44839 0.464172
lowerneck -1.8722 -0.177891 -7.38828
upperneck 25.2453 -0.710032 5.80285
head 8.12328 -0.445155 3.17342
rclavicle -3.04886e-014 -1.43125e-014
rhumerus -35.3604 -11.4343 -62.8848
rradius 28.5463
rwrist 7.29805
rhand -23.138 1.22653
rfingers 7.12502
rthumb 3.30981 -28.7275
lclavicle -3.04886e-014 -1.43125e-014
lhumerus -29.8428 10.864 75.3757
lradius 25.486
lwrist -0.880971
lhand -28.799 25.7286
lfingers 7.12502
lthumb -2.15758 55.6975
rfemur -7.49276 31.1385 21.9565
rtibia 42.3569
rfoot 0.815205 25.2096
rtoes 20.9571
lfemur -35.781 8.78727 -19.0245
ltibia 84.0941
lfoot -7.46767 -5.14841
ltoes -13.2102
1398
root -3.51788 22.1747 0.799092 353.263 17.5521 7.05208
lowerback 8.07984 -2.19823 -1.13236
upperback 3.02494 -3.00251 -0.349329
thorax -1.35824 -1.49721 0.546541
lowerneck -1.94678 -0.184046 -7.44235
upperneck 25.4281 -0.691709 5.70618
head 8.19908 -0.451341 3.15556
rclavicle -1.23992e-014 9.54166e-015
rhumerus -35.4926 -11.3865 -62.8307
rradius 29.1172
rwrist 7.88571
rhand -22.9346 1.34456
rfingers 7.12502
rthumb 3.50625 -28.6064
lclavicle -1.23992e-014 9.54166e-015
lhumerus -29.7416 11.0644 75.1116
lradius 24.9324
lwrist -1.33578
lhand -28.9866 25.2444
lfingers 7.12502
lthumb -2.33877 55.2113
rfemur -7.48035 31.4373 22.0135
rtibia 42.429
rfoot 0.507667 24.9322
rtoes 21.5531
lfemur -35.6718 8.74512 -19.4958
ltibia 82.2986
lfoot -5.86779 -5.09804
ltoes -13.3175
1399
root -3.55142 22.1663 0.826322 353.348 17.4712 7.24496
lowerback 8.12153 -2.23074 -1.34124
upperback 2.958 -3.06443 -0.39503
thorax -1.44069 -1.52804 0.62531
lowerneck -1.97969 -0.142632 -7.48247
upperneck 25.5213 -0.625645 5.68386
head 8.23248 -0.42674 3.16186
rclavicle 5.34234e-015 -1.11319e-014
rhumerus -35.6224 -11.1368 -62.9579
rradius 29.4129
rwrist 6.96976
rhand -24.1621 2.84743
rfingers 7.12502
rthumb 2.32079 -27.1197
lclavicle 5.34234e-015 -1.11319e-014
lhumerus -29.5641 11.2815 74.8416
lradius 24.3269
lwrist -1.68166
lhand -29.2982 24.6547
lfingers 7.12502
lthumb -2.63975 54.6181
rfemur -7.36003 31.8998 22.1516
rtibia 42.5004
rfoot 0.131103 24.6923
rtoes 22.194
lfemur -35.4645 8.74321 -19.966
ltibia 80.4392
lfoot -4.13047 -5.11393
ltoes -13.0514
1400
root -3.58683 22.1546 0.851934 353.49 17.405 7.60094
lowerback 8.16856 -2.27006 -1.73323
upperback 2.89316 -3.15126 -0.492117
thorax -1.51585 -1.57148 0.755899
lowerneck -2.06396 -0.0729924 -7.44465
upperneck 25.5683 -0.518629 5.63704
head 8.25601 -0.377117 3.14847
rclavicle -2.127e-014 -3.02153e-014
rhumerus -35.724 -11.0357 -62.9892
rradius 30.1417
rwrist 7.49267
rhand -23.1111 1.77997
rfingers 7.12502
rthumb 3.33576 -28.1737
lclavicle -2.127e-014 -3.02153e-014
lhumerus -29.463 11.5053 74.5096
lradius 23.8136
lwrist -2.01514
lhand -29.4744 24.0864
lfingers 7.12502
lthumb -2.80989 54.0477
rfemur -7.26083 32.3875 22.1117
rtibia 42.5797
rfoot -0.389466 24.6104
rtoes 22.9258
lfemur -35.2364 8.77152 -20.6085
ltibia 78.5168
lfoot -2.19983 -4.77368
ltoes -13.9809
